<svg width="252" height="29" viewBox="0 0 252 29" fill="none" xmlns="http://www.w3.org/2000/svg">
<path d="M0.8 28V-1.90735e-06H7.32L22.76 18.64H19.68V-1.90735e-06H27.44V28H20.92L5.48 9.36H8.56V28H0.8ZM40.3866 12.28H53.3066V18.4H40.3866V12.28ZM40.9466 28H33.0266V-1.90735e-06H54.9866V6.12H40.9466V28ZM64.8459 28V6.28H56.2459V-1.90735e-06H81.3259V6.28H72.7659V28H64.8459Z" fill="url(#paint0_linear_2_24)"/>
<path d="M84.2766 28V-1.90735e-06H90.7966L102.397 19.04H98.9566L110.237 -1.90735e-06H116.757L116.837 28H109.557L109.477 11.08H110.717L102.277 25.24H98.7566L90.0766 11.08H91.5966V28H84.2766ZM131.201 28.36C129.441 28.36 127.854 28.0133 126.441 27.32C125.054 26.6267 123.961 25.5467 123.161 24.08C122.387 22.5867 122.001 20.7067 122.001 18.44V6.32H129.601V17.2C129.601 18.88 129.907 20.08 130.521 20.8C131.161 21.52 132.054 21.88 133.201 21.88C133.947 21.88 134.627 21.7067 135.241 21.36C135.854 21.0133 136.347 20.4667 136.721 19.72C137.094 18.9467 137.281 17.96 137.281 16.76V6.32H144.881V28H137.641V21.88L139.041 23.6C138.294 25.2 137.214 26.4 135.801 27.2C134.387 27.9733 132.854 28.36 131.201 28.36ZM159.456 28.36C156.683 28.36 154.523 27.68 152.976 26.32C151.429 24.9333 150.656 22.8533 150.656 20.08V1.48H158.256V20C158.256 20.7733 158.469 21.3867 158.896 21.84C159.323 22.2667 159.869 22.48 160.536 22.48C161.443 22.48 162.216 22.2533 162.856 21.8L164.736 27.12C164.096 27.5467 163.309 27.8533 162.376 28.04C161.443 28.2533 160.469 28.36 159.456 28.36ZM147.496 12.8V7.12H163.216V12.8H147.496ZM180.907 28V23.96L180.387 22.96V15.52C180.387 14.32 180.013 13.4 179.267 12.76C178.547 12.0933 177.387 11.76 175.787 11.76C174.747 11.76 173.693 11.9333 172.627 12.28C171.56 12.6 170.653 13.0533 169.907 13.64L167.347 8.48C168.573 7.68 170.04 7.06667 171.747 6.64C173.48 6.18667 175.2 5.96 176.907 5.96C180.427 5.96 183.147 6.77333 185.067 8.4C187.013 10 187.987 12.52 187.987 15.96V28H180.907ZM174.507 28.36C172.773 28.36 171.307 28.0667 170.107 27.48C168.907 26.8933 167.987 26.0933 167.347 25.08C166.733 24.0667 166.427 22.9333 166.427 21.68C166.427 20.3467 166.76 19.2 167.427 18.24C168.12 17.2533 169.173 16.5067 170.587 16C172 15.4667 173.827 15.2 176.067 15.2H181.187V19.16H177.107C175.88 19.16 175.013 19.36 174.507 19.76C174.027 20.16 173.787 20.6933 173.787 21.36C173.787 22.0267 174.04 22.56 174.547 22.96C175.053 23.36 175.747 23.56 176.627 23.56C177.453 23.56 178.2 23.36 178.867 22.96C179.56 22.5333 180.067 21.8933 180.387 21.04L181.427 23.84C181.027 25.3333 180.24 26.4667 179.067 27.24C177.92 27.9867 176.4 28.36 174.507 28.36ZM202.464 28.36C199.69 28.36 197.53 27.68 195.984 26.32C194.437 24.9333 193.664 22.8533 193.664 20.08V1.48H201.264V20C201.264 20.7733 201.477 21.3867 201.904 21.84C202.33 22.2667 202.877 22.48 203.544 22.48C204.45 22.48 205.224 22.2533 205.864 21.8L207.744 27.12C207.104 27.5467 206.317 27.8533 205.384 28.04C204.45 28.2533 203.477 28.36 202.464 28.36ZM190.504 12.8V7.12H206.224V12.8H190.504ZM220.929 28.36C218.556 28.36 216.449 27.88 214.609 26.92C212.769 25.96 211.316 24.64 210.249 22.96C209.209 21.2533 208.689 19.3067 208.689 17.12C208.689 14.9333 209.209 13 210.249 11.32C211.316 9.64 212.769 8.33333 214.609 7.4C216.449 6.44 218.556 5.96 220.929 5.96C223.303 5.96 225.409 6.44 227.249 7.4C229.116 8.33333 230.569 9.64 231.609 11.32C232.649 13 233.169 14.9333 233.169 17.12C233.169 19.3067 232.649 21.2533 231.609 22.96C230.569 24.64 229.116 25.96 227.249 26.92C225.409 27.88 223.303 28.36 220.929 28.36ZM220.929 22.32C221.809 22.32 222.583 22.12 223.249 21.72C223.943 21.32 224.489 20.7333 224.889 19.96C225.289 19.16 225.489 18.2133 225.489 17.12C225.489 16.0267 225.289 15.1067 224.889 14.36C224.489 13.5867 223.943 13 223.249 12.6C222.583 12.2 221.809 12 220.929 12C220.076 12 219.303 12.2 218.609 12.6C217.943 13 217.396 13.5867 216.969 14.36C216.569 15.1067 216.369 16.0267 216.369 17.12C216.369 18.2133 216.569 19.16 216.969 19.96C217.396 20.7333 217.943 21.32 218.609 21.72C219.303 22.12 220.076 22.32 220.929 22.32ZM236.69 28V6.32H243.93V12.64L242.85 10.84C243.49 9.21333 244.53 8 245.97 7.2C247.41 6.37333 249.157 5.96 251.21 5.96V12.8C250.863 12.7467 250.557 12.72 250.29 12.72C250.05 12.6933 249.783 12.68 249.49 12.68C247.943 12.68 246.69 13.1067 245.73 13.96C244.77 14.7867 244.29 16.1467 244.29 18.04V28H236.69Z" fill="white"/>
<defs>
<linearGradient id="paint0_linear_2_24" x1="-2" y1="12.8378" x2="73.801" y2="12.8378" gradientUnits="userSpaceOnUse">
<stop stop-color="#7C1DC1"/>
<stop offset="0.197917" stop-color="#EB54BC"/>
<stop offset="0.375" stop-color="#0FB6CA"/>
<stop offset="0.53125" stop-color="#67D8DE"/>
<stop offset="0.708333" stop-color="#02DC85"/>
<stop offset="1" stop-color="#FCD757"/>
</linearGradient>
</defs>
</svg>
